<svg width="184" height="184" viewBox="0 0 184 184" fill="none" xmlns="http://www.w3.org/2000/svg">
<rect y="184" width="184" height="184" rx="40" transform="rotate(-90 0 184)" fill="#FABD00"/>
<path d="M92.6998 92.3116C92.6998 103.591 83.5157 112.75 72.2609 112.75C60.9818 112.75 51.822 103.566 51.822 92.3116H36.4746C36.4746 112.044 52.5285 128.098 72.2609 128.098C91.9933 128.098 108.047 112.044 108.047 92.3116C108.047 72.5792 91.9933 56.5253 72.2609 56.5253V71.8727C83.5401 71.8727 92.6998 81.0325 92.6998 92.3116Z" fill="#231F20"/>
<path d="M36.4746 71.8725V82.0554H51.822V71.8725H61.9806V56.5251H51.822H36.4746V71.8725Z" fill="#231F20"/>
<path d="M147.317 56.6958V72.0432C136.038 72.0432 126.854 81.2273 126.854 92.5065C126.854 103.786 136.038 112.97 147.317 112.97V128.317C127.585 128.317 111.507 112.263 111.507 92.5065C111.531 72.7497 127.585 56.6958 147.317 56.6958Z" fill="#231F20"/>
</svg>
