<svg width="249" height="274" viewBox="0 0 249 274" fill="none" xmlns="http://www.w3.org/2000/svg">
<path d="M73.6955 196.539L68.4381 201.519C64.6565 197.799 60.5059 194.986 55.9864 193.08C51.4977 191.143 47.1165 190.175 42.843 190.175C37.5241 190.175 32.4512 191.481 27.6243 194.095C22.8281 196.708 19.1079 200.259 16.4639 204.748C13.8198 209.206 12.4978 213.925 12.4978 218.906C12.4978 224.009 13.8659 228.867 16.6022 233.479C19.3385 238.06 23.1202 241.672 27.9471 244.316C32.774 246.93 38.0622 248.236 43.8115 248.236C50.7905 248.236 56.6936 246.269 61.5205 242.333C66.3475 238.398 69.2067 233.294 70.0983 227.022H48.4693V220.474H77.7077C77.6462 230.958 74.5256 239.289 68.3459 245.469C62.1969 251.618 53.9573 254.693 43.627 254.693C31.0831 254.693 21.1525 250.419 13.8352 241.872C8.20888 235.293 5.39573 227.683 5.39573 219.044C5.39573 212.618 7.00983 206.638 10.238 201.104C13.4663 195.57 17.8935 191.251 23.5198 188.145C29.1461 185.009 35.5103 183.441 42.6124 183.441C48.3617 183.441 53.7728 184.487 58.8457 186.577C63.9186 188.637 68.8685 191.958 73.6955 196.539ZM91.8196 182.15C93.2953 182.15 94.5559 182.673 95.6012 183.718C96.6465 184.763 97.1692 186.024 97.1692 187.5C97.1692 188.945 96.6465 190.19 95.6012 191.235C94.5559 192.281 93.2953 192.803 91.8196 192.803C90.3746 192.803 89.1294 192.281 88.0841 191.235C87.0388 190.19 86.5161 188.945 86.5161 187.5C86.5161 186.024 87.0388 184.763 88.0841 183.718C89.1294 182.673 90.3746 182.15 91.8196 182.15ZM88.5914 202.811H95.0939V252.986H88.5914V202.811ZM151.68 202.811H158.182V242.794C158.182 249.835 157.568 254.985 156.338 258.244C154.647 262.855 151.711 266.406 147.529 268.897C143.348 271.387 138.321 272.632 132.449 272.632C128.145 272.632 124.271 272.017 120.827 270.788C117.415 269.589 114.632 267.959 112.48 265.899C110.328 263.87 108.345 260.888 106.531 256.952H113.541C115.447 260.273 117.907 262.732 120.92 264.331C123.933 265.93 127.668 266.729 132.126 266.729C136.523 266.729 140.227 265.899 143.24 264.239C146.284 262.609 148.452 260.55 149.743 258.059C151.034 255.569 151.68 251.557 151.68 246.023V243.44C149.251 246.515 146.284 248.882 142.779 250.542C139.274 252.172 135.554 252.986 131.619 252.986C127.007 252.986 122.672 251.849 118.614 249.574C114.555 247.268 111.419 244.178 109.206 240.304C106.992 236.43 105.885 232.172 105.885 227.53C105.885 222.887 107.038 218.567 109.344 214.571C111.65 210.543 114.832 207.361 118.89 205.024C122.98 202.688 127.284 201.519 131.803 201.519C135.554 201.519 139.044 202.303 142.272 203.871C145.531 205.409 148.667 207.96 151.68 211.527V202.811ZM132.633 207.745C128.975 207.745 125.577 208.637 122.441 210.42C119.306 212.172 116.846 214.617 115.063 217.753C113.28 220.858 112.388 224.224 112.388 227.852C112.388 233.356 114.233 237.906 117.922 241.503C121.611 245.1 126.392 246.899 132.264 246.899C138.198 246.899 142.964 245.116 146.561 241.549C150.189 237.983 152.003 233.294 152.003 227.483C152.003 223.702 151.173 220.335 149.512 217.384C147.852 214.402 145.5 212.05 142.456 210.328C139.413 208.606 136.138 207.745 132.633 207.745ZM195.676 185.148H203.608L219.841 211.619L236.213 185.148H244.053L223.853 218.029L245.39 252.986H237.458L219.841 224.532L202.132 252.986H194.2L215.829 218.029L195.676 185.148Z" fill="#FABD00"/>
<rect x="45.5068" y="157.986" width="157.986" height="157.986" rx="34.3448" transform="rotate(-90 45.5068 157.986)" fill="#FABD00"/>
<path d="M125.101 79.2606C125.101 88.9451 117.215 96.8099 107.552 96.8099C97.8671 96.8099 90.0023 88.9242 90.0023 79.2606H76.8247C76.8247 96.2033 90.6089 109.987 107.552 109.987C124.494 109.987 138.278 96.2033 138.278 79.2606C138.278 62.318 124.494 48.5338 107.552 48.5338V61.7114C117.236 61.7114 125.101 69.5761 125.101 79.2606Z" fill="#231F20"/>
<path d="M76.8247 61.7112V70.4545H90.0023V61.7112H98.7247V48.5336H90.0023H76.8247V61.7112Z" fill="#231F20"/>
<path d="M171.996 48.6801V61.8578C162.312 61.8578 154.426 69.7434 154.426 79.4279C154.426 89.1124 162.312 96.9981 171.996 96.9981V110.176C155.054 110.176 141.249 96.3915 141.249 79.4279C141.27 62.4644 155.054 48.6801 171.996 48.6801Z" fill="#231F20"/>
</svg>
