<svg width="134" height="54" viewBox="0 0 134 54" fill="none" xmlns="http://www.w3.org/2000/svg">
<path d="M0 11.705C0 5.24049 5.24049 0 11.705 0H42.1378C48.6023 0 53.8428 5.24049 53.8428 11.705V42.1378C53.8428 48.6023 48.6023 53.8428 42.1378 53.8428H11.705C5.24049 53.8428 0 48.6023 0 42.1378V11.705Z" fill="#FABD00"/>
<path d="M81.2845 21.1576L79.7305 22.6299C78.6127 21.5302 77.3858 20.6987 76.0498 20.1352C74.723 19.5627 73.4279 19.2764 72.1647 19.2764C70.5925 19.2764 69.0929 19.6626 67.6661 20.4351C66.2484 21.2076 65.1487 22.2573 64.3671 23.5841C63.5856 24.9019 63.1948 26.2969 63.1948 27.7692C63.1948 29.2778 63.5992 30.7137 64.408 32.0769C65.2169 33.431 66.3347 34.4989 67.7615 35.2804C69.1883 36.0529 70.7515 36.4392 72.451 36.4392C74.5139 36.4392 76.2589 35.8575 77.6857 34.6943C79.1125 33.531 79.9577 32.0224 80.2212 30.1684H73.8278V28.2327H82.4705C82.4524 31.3317 81.5299 33.7945 79.7032 35.6212C77.8856 37.4388 75.45 38.3476 72.3964 38.3476C68.6885 38.3476 65.7531 37.0844 63.5901 34.5579C61.927 32.6131 61.0954 30.3638 61.0954 27.8101C61.0954 25.9107 61.5726 24.143 62.5268 22.5072C63.4811 20.8713 64.7897 19.5945 66.4528 18.6766C68.116 17.7496 69.9972 17.2861 72.0965 17.2861C73.796 17.2861 75.3955 17.5951 76.895 18.2131C78.3945 18.822 79.8577 19.8035 81.2845 21.1576ZM86.6419 16.9044C87.0782 16.9044 87.4508 17.0589 87.7598 17.3679C88.0688 17.6769 88.2233 18.0495 88.2233 18.4857C88.2233 18.9129 88.0688 19.2809 87.7598 19.5899C87.4508 19.8989 87.0782 20.0534 86.6419 20.0534C86.2148 20.0534 85.8467 19.8989 85.5377 19.5899C85.2288 19.2809 85.0743 18.9129 85.0743 18.4857C85.0743 18.0495 85.2288 17.6769 85.5377 17.3679C85.8467 17.0589 86.2148 16.9044 86.6419 16.9044ZM85.6877 23.0116H87.6098V37.8433H85.6877V23.0116ZM104.336 23.0116H106.258V34.8306C106.258 36.9117 106.077 38.434 105.713 39.3973C105.213 40.7605 104.345 41.8102 103.109 42.5463C101.874 43.2825 100.388 43.6505 98.6518 43.6505C97.3795 43.6505 96.2344 43.4688 95.2165 43.1052C94.2077 42.7508 93.3853 42.2691 92.7491 41.6602C92.1129 41.0604 91.5268 40.1789 90.9906 39.0156H93.0627C93.6261 39.9971 94.3532 40.7242 95.2438 41.1968C96.1344 41.6693 97.2386 41.9056 98.5564 41.9056C99.856 41.9056 100.951 41.6602 101.842 41.1695C102.741 40.6878 103.382 40.0789 103.764 39.3428C104.146 38.6067 104.336 37.4207 104.336 35.7848V35.0214C103.618 35.9302 102.741 36.63 101.705 37.1208C100.669 37.6024 99.5697 37.8433 98.4064 37.8433C97.0432 37.8433 95.7618 37.507 94.5622 36.8345C93.3626 36.1529 92.4356 35.2395 91.7812 34.0944C91.1269 32.9493 90.7997 31.6907 90.7997 30.3184C90.7997 28.9461 91.1405 27.6692 91.8221 26.4877C92.5037 25.2972 93.4443 24.3566 94.644 23.6659C95.8527 22.9752 97.125 22.6299 98.461 22.6299C99.5697 22.6299 100.601 22.8616 101.555 23.3251C102.519 23.7795 103.446 24.5338 104.336 25.588V23.0116ZM98.7063 24.4702C97.6249 24.4702 96.6206 24.7338 95.6936 25.2609C94.7667 25.7789 94.0396 26.5014 93.5125 27.4284C92.9854 28.3463 92.7218 29.3414 92.7218 30.4138C92.7218 32.0405 93.2671 33.3856 94.3577 34.4489C95.4483 35.5122 96.8615 36.0438 98.5973 36.0438C100.351 36.0438 101.76 35.5167 102.823 34.4625C103.896 33.4083 104.432 32.0224 104.432 30.3047C104.432 29.1869 104.186 28.1918 103.696 27.3193C103.205 26.4378 102.51 25.7425 101.61 25.2336C100.71 24.7247 99.7424 24.4702 98.7063 24.4702ZM117.341 17.7905H119.686L124.485 25.6153L129.324 17.7905H131.641L125.671 27.5102L132.037 37.8433H129.692L124.485 29.4323L119.25 37.8433H116.905L123.299 27.5102L117.341 17.7905Z" fill="#FABD00"/>
<path d="M27.4528 26.4722C27.4528 29.7727 24.7653 32.4531 21.4719 32.4531C18.1714 32.4531 15.491 29.7656 15.491 26.4722L11 26.4722C11 32.2463 15.6978 36.9441 21.4719 36.9441C27.2461 36.9441 31.9439 32.2463 31.9439 26.4722C31.9439 20.698 27.2461 16.0002 21.4719 16.0002L21.4719 20.4913C24.7725 20.4913 27.4528 23.1716 27.4528 26.4722Z" fill="#151515"/>
<path d="M11 20.4909L11 23.4707L15.491 23.4707L15.491 20.4909L18.4637 20.4909L18.4637 15.9999L15.491 15.9999L11 15.9999L11 20.4909Z" fill="#151515"/>
<path d="M43.4354 16.0497L43.4354 20.5407C40.1348 20.5407 37.4473 23.2282 37.4473 26.5288C37.4473 29.8293 40.1348 32.5168 43.4354 32.5168L43.4354 37.0078C37.6612 37.0078 32.9563 32.3101 32.9563 26.5288C32.9634 20.7474 37.6612 16.0497 43.4354 16.0497Z" fill="#151515"/>
</svg>
