<svg width="26" height="26" viewBox="0 0 26 26" fill="none" xmlns="http://www.w3.org/2000/svg">
<g id="Group 3">
<path id="Vector" d="M11.2235 21.6955C9.1033 21.6955 7.03068 21.0668 5.26776 19.8889C3.50485 18.711 2.13082 17.0368 1.31944 15.0781C0.508063 13.1193 0.295769 10.9639 0.709407 8.88451C1.12305 6.80509 2.14404 4.89502 3.64327 3.39584C5.14251 1.89666 7.05265 0.875707 9.13215 0.462085C11.2117 0.0484622 13.3671 0.260748 15.326 1.0721C17.2848 1.88345 18.9591 3.25742 20.137 5.02027C21.3149 6.78311 21.9437 8.85566 21.9437 10.9758C21.9437 12.3836 21.6664 13.7775 21.1276 15.0781C20.5889 16.3787 19.7993 17.5604 18.8038 18.5558C17.8084 19.5512 16.6266 20.3408 15.326 20.8795C14.0253 21.4183 12.6313 21.6955 11.2235 21.6955ZM11.2235 2.40574C9.53411 2.40574 7.88262 2.9067 6.4779 3.84526C5.07319 4.78383 3.97835 6.11784 3.33183 7.67862C2.68531 9.23939 2.51615 10.9568 2.84575 12.6137C3.17534 14.2706 3.98888 15.7926 5.18349 16.9872C6.3781 18.1817 7.90012 18.9952 9.5571 19.3248C11.2141 19.6544 12.9316 19.4853 14.4924 18.8388C16.0532 18.1923 17.3873 17.0975 18.3259 15.6928C19.2645 14.2881 19.7655 12.6367 19.7655 10.9473C19.7655 8.68197 18.8655 6.50938 17.2636 4.90752C15.6617 3.30566 13.489 2.40574 11.2235 2.40574Z" fill="#A9A9A9"/>
<path id="Vector_2" d="M24.3642 25.1831C24.2239 25.1837 24.0849 25.1564 23.9553 25.1026C23.8257 25.0488 23.7082 24.9697 23.6096 24.8699L17.7299 18.9904C17.5413 18.788 17.4386 18.5203 17.4435 18.2437C17.4484 17.9671 17.5605 17.7032 17.7561 17.5075C17.9517 17.3119 18.2156 17.1999 18.4923 17.195C18.7689 17.1901 19.0366 17.2928 19.239 17.4814L25.1187 23.3609C25.3187 23.561 25.431 23.8324 25.431 24.1154C25.431 24.3983 25.3187 24.6697 25.1187 24.8699C25.0201 24.9697 24.9026 25.0488 24.773 25.1026C24.6435 25.1564 24.5044 25.1837 24.3642 25.1831Z" fill="#A9A9A9"/>
</g>
</svg>
